<?xml version="1.0" encoding="utf-8"?>
<!-- Generator: Adobe Illustrator 24.0.2, SVG Export Plug-In . SVG Version: 6.00 Build 0)  -->
<svg version="1.1" id="Capa_1" xmlns="http://www.w3.org/2000/svg" xmlns:xlink="http://www.w3.org/1999/xlink" x="0px" y="0px"
	 viewBox="0 0 489.9 489.9" style="enable-background:new 0 0 489.9 489.9;" xml:space="preserve">
<style type="text/css">
	.st0{fill:#7676FF;}
</style>
<g>
	<g>
		<path class="st0" d="M25.4,290.5C18.2,213,51.3,142.8,106.2,98.2c21.4-17.4,53.4-2.5,53.4,25l0,0c0,10.1-4.8,19.4-12.6,25.7
			c-38.9,31.7-62.3,81.7-56.6,136.9c7.4,71.9,65,130.1,136.8,138.1c93.7,10.5,173.3-62.9,173.3-154.5c0-48.6-22.5-92.1-57.6-120.6
			c-7.8-6.3-12.5-15.6-12.5-25.6l0,0c0-27.2,31.5-42.6,52.7-25.6c50.2,40.5,82.4,102.4,82.4,171.8c0,126.9-107.8,229.2-236.7,219.9
			C122.2,481.8,35.3,396.9,25.4,290.5z M244.9,0c-18,0-32.5,14.6-32.5,32.5v149.7c0,18,14.6,32.5,32.5,32.5s32.5-14.6,32.5-32.5
			V32.5C277.4,14.6,262.9,0,244.9,0z"/>
	</g>
</g>
</svg>
