<?xml version="1.0" encoding="utf-8"?>
<!-- Generator: Adobe Illustrator 24.0.2, SVG Export Plug-In . SVG Version: 6.00 Build 0)  -->
<svg version="1.1" id="Layer_1" xmlns="http://www.w3.org/2000/svg" xmlns:xlink="http://www.w3.org/1999/xlink" x="0px" y="0px"
	 viewBox="0 0 512 512" style="enable-background:new 0 0 512 512;" xml:space="preserve">
<style type="text/css">
	.st0{fill:#7676FF;}
</style>
<g>
	<path class="st0" d="M461.2,344.6V326V214V102.1c0-10.2-8.4-18.6-18.6-18.6H69.4c-10.3,0-18.7,8.4-18.7,18.6V214V326v18.6l-46.6,56
		c0,15.4,12.5,28,28,28h447.8c15.4,0,28-12.5,28-28L461.2,344.6z M293.3,419.3h-74.6c-2.6,0-4.7-2.1-4.7-4.7s2.1-4.7,4.7-4.7h74.6
		c2.6,0,4.7,2.1,4.7,4.7C297.9,417.2,295.9,419.3,293.3,419.3z M179.1,400.6l14.2-17.1h125.3l14.3,17.1H179.1z M434.9,311.6
		c0,9-7.3,16.3-16.3,16.3H93.3c-8.9,0-16.3-7.3-16.3-16.3V116.5c0-9,7.3-16.3,16.3-16.3h325.4c8.9,0,16.3,7.3,16.3,16.3
		C434.9,116.5,434.9,311.6,434.9,311.6z"/>
</g>
</svg>
